<?xml version="1.0" encoding="utf-8" ?><svg xmlns="http://www.w3.org/2000/svg" xmlns:xlink="http://www.w3.org/1999/xlink" width="3995" height="2663" viewBox="0 0 3995 2663"><defs><linearGradient id="gradient_0" gradientUnits="userSpaceOnUse" x1="625.48962" y1="999.7627" x2="877.52057" y2="554.38037"><stop offset="0" stop-color="#04686A"/><stop offset="1" stop-color="#1FC498"/></linearGradient></defs><path fill="url(#gradient_0)" transform="scale(2.60059 2.60059)" d="M0 0L98.9098 0L1529.33 0L1536 0L1536 72.5468L1536 200.939L1536 245.225L1536 264.884L1536 457.298L1536 488.685L1536 569.994L1536 631.213C1529.65 632.184 1521.03 633.272 1515.02 634.854C1510.63 651.424 1505.93 667.911 1500.93 684.306C1498.76 691.639 1494.23 705.662 1492.89 712.823C1483.5 710.637 1464.01 708.805 1453.83 707.596C1431.71 705 1409.62 702.224 1387.55 699.269C1376.53 697.771 1361.34 695.85 1350.99 692.661C1345 707.618 1336.72 729.195 1329.51 743.095C1325.67 750.521 1302.57 801.07 1299.82 802.952C1296.2 811.345 1291.38 821.504 1285.27 828.228C1272.72 842.05 1258.83 854.985 1245.12 867.628C1233.99 871.454 1219.74 874.568 1208.12 877.909C1201.97 891.38 1195.68 908.958 1190.28 923.066C1170.25 929.641 1135.85 937.753 1114.66 942.694C1100.86 964.743 1089.27 989.537 1076.22 1012.11C1074.06 1015.86 1071.79 1020.1 1069.92 1024L705.415 1024L588.754 1024L430.455 1024L308.376 1024L172.119 1024L0 1024L0 902.705L0 747.526L0 511.892L0 456.807L0 434.185L0 318.665L0 301.602L0 268.975L0 203.507L0 191.28L0 106.652L0 0Z"/><path fill="#F79A46" transform="scale(2.60059 2.60059)" d="M1281.77 334.164L1281.92 335.738C1276.23 342.303 1256.24 360.163 1248.93 365.385C1243.92 370.859 1231.1 380.113 1224.61 385.966C1220.82 388.568 1218.54 390.583 1215.31 393.913C1214.78 397.722 1213.7 410.787 1210.6 412.757C1195.07 417.284 1176.96 422.354 1161.8 428C1164.98 413.012 1168.68 396.912 1170.96 381.876C1162.7 383.833 1141.45 381.467 1131.67 381.141L1129.73 381.091C1122.67 379.323 1103.77 377.992 1096.09 377.356C1077.06 375.78 1058.81 374.485 1039.99 370.535C1034.48 369.378 1026.43 368.256 1021.43 366.115C1032.25 366.293 1055.83 363.636 1067.87 362.705C1091.54 360.872 1118.03 359.687 1141.38 356.719C1164.2 355.546 1190.14 347.201 1213.37 346.316C1237.57 345.394 1258.47 340.019 1281.77 334.164Z"/><path fill="#D83F1B" transform="scale(2.60059 2.60059)" d="M1170.96 381.876C1206.57 361.492 1208.93 365.087 1248.93 365.385C1243.92 370.859 1231.1 380.113 1224.61 385.966C1220.82 388.568 1218.54 390.583 1215.31 393.913C1214.78 397.722 1213.7 410.787 1210.6 412.757C1195.07 417.284 1176.96 422.354 1161.8 428C1164.98 413.012 1168.68 396.912 1170.96 381.876Z"/><path fill="#4ABCE7" transform="scale(2.60059 2.60059)" d="M0 0L98.9098 0L1529.33 0L1536 0L1536 72.5468L1536 200.939L1536 245.225L1536 264.884C1518.51 265.04 1493.47 266.659 1476.96 266.154C1449.82 262.912 1421.39 260.431 1394.09 257.71C1392.69 257.1 1375.28 256.423 1371.74 256.024C1363.52 255.529 1355.1 254.379 1346.94 253.301C1340.07 252.666 1314.36 251.233 1310.84 247.613C1308.52 261.595 1305.46 275.42 1302.63 289.291C1300.29 300.789 1294.39 330.524 1281.77 334.164C1258.47 340.019 1237.57 345.394 1213.37 346.316C1190.14 347.201 1164.2 355.546 1141.38 356.719C1118.03 359.687 1091.54 360.872 1067.87 362.705C1055.83 363.636 1032.25 366.293 1021.43 366.115C1020 367.03 1019.96 367.137 1019.63 369.411C1018.03 380.37 1016.66 391.689 1015.17 402.646C1007.25 404.121 999.224 405.689 991.293 407.06C986.797 407.958 982.523 408.829 977.973 409.479C975.421 411.523 968.802 431.612 967.014 436.434C961.261 451.513 955.374 466.541 949.354 481.516C932.193 489.368 904.699 498.296 886.447 504.257C885.511 505.686 880.438 514.92 880.419 514.942C858.146 513.248 836.48 508.64 814.55 505.32C817.85 499.167 823.667 490.676 827.535 484.282C803.406 483.106 780.258 477.961 756.354 474.861C759.489 469.347 763.733 463.446 767.365 458.138L767.841 455.014C757.158 461.492 747.506 469.534 739.204 478.873L738.488 477.852C734.256 475.585 689.091 470.098 682.942 470.686C691.718 478.146 709.573 493.13 716.533 501.549C705.028 501.808 694.947 503.849 684.096 504.25C671.247 506.22 655.923 507.104 643.654 509.681C644.643 512.069 646.465 513.67 648.265 515.585C643.332 516.366 616.032 521.048 612.808 520.373L610.316 522.755C605.878 520.222 596.614 512.502 593.049 511.248C570.802 503.419 544.677 493.843 522.287 487.731C519.417 470.652 512.841 440.729 511.797 424.585C511.721 423.602 511.478 423.122 511.174 422.16C503.669 415.911 414.382 400.889 396.387 397.888C363.81 395.938 344.123 397.747 311.895 389.639C297.905 386.119 249.662 382.601 234.65 383.835C236.304 392.51 237.824 401.81 240.446 410.19C256.491 411.852 272.943 424.287 276.986 440.136L277.628 445.746C280.355 450.429 283.575 455.238 287.36 459.138C305.667 460.988 323.976 462.833 342.28 464.71C346.023 465.093 352.843 465.226 355.619 467.304C354.868 469.108 354.626 469.702 352.482 470.246C333.474 475.076 313.097 480.685 293.879 484.254C273.574 487.888 249.119 488.507 228.428 491.17C222.849 491.888 209.77 492.722 204.881 493.889C193.706 495.417 168.676 499.441 157.87 499.75C131.138 502.904 104.876 506.575 77.9587 507.052C75.3408 507.099 72.1859 507.216 69.6563 507.73C46.4961 508.671 22.8449 511.092 0 511.892L0 456.807L0 434.185L0 318.665L0 301.602L0 268.975L0 203.507L0 191.28L0 106.652L0 0Z"/><path fill="#4ABCE7" transform="scale(2.60059 2.60059)" d="M98.9098 0L1529.33 0C1525.02 2.59357 1508.59 7.94029 1502.34 10.9363C1478.59 22.3373 1452.66 39.947 1437.19 61.423C1371.24 37.8525 1304.36 54.3929 1249.51 94.7555C1241.2 100.867 1231.52 108.362 1222.84 113.615C1217.59 113.31 1208.47 111.342 1202.93 110.352C1193.57 108.67 1184.16 107.258 1174.71 106.117C1131.81 100.673 1088.4 100.567 1045.47 105.8C1002.39 110.818 946.942 122.868 910.641 148.854C905.303 152.675 900.977 157.963 896.925 163.088C895.851 162.756 894.843 162.476 893.76 162.183C849.059 150.356 801.489 156.859 761.6 180.248C759.828 179.353 758.05 178.469 756.265 177.598C714.439 157.222 671.765 154.146 627.795 169.359C604.451 156.534 583.157 146.445 556.01 155.612C555.011 152.632 553.901 149.691 552.681 146.795C538.598 114.154 500.424 95.9425 466.183 100.282C449.69 102.372 439.809 106.987 424.895 113.562C412.987 104.968 401.82 97.181 388.471 90.9381C346.522 71.3206 302.582 68.603 258.246 81.1408C247.449 60.616 238.688 49.3393 219.154 36.4517C185.178 14.0364 151.273 10.7836 112.574 20.8011C108.204 13.7476 103.648 6.81147 98.9098 0Z"/><path fill="#41C0E6" transform="scale(2.60059 2.60059)" d="M0 0L98.9098 0C103.648 6.81147 108.204 13.7476 112.574 20.8011C151.273 10.7836 185.178 14.0364 219.154 36.4517C238.688 49.3393 247.449 60.616 258.246 81.1408C302.582 68.603 346.522 71.3206 388.471 90.9381C401.82 97.181 412.987 104.968 424.895 113.562C439.809 106.987 449.69 102.372 466.183 100.282C500.424 95.9425 538.598 114.154 552.681 146.795C553.901 149.691 555.011 152.632 556.01 155.612C583.157 146.445 604.451 156.534 627.795 169.359C671.765 154.146 714.439 157.222 756.265 177.598C758.05 178.469 759.828 179.353 761.6 180.248C801.489 156.859 849.059 150.356 893.76 162.183C894.843 162.476 895.851 162.756 896.925 163.088C900.977 157.963 905.303 152.675 910.641 148.854C946.942 122.868 1002.39 110.818 1045.47 105.8C1088.4 100.567 1131.81 100.673 1174.71 106.117C1184.16 107.258 1193.57 108.67 1202.93 110.352C1208.47 111.342 1217.59 113.31 1222.84 113.615C1231.52 108.362 1241.2 100.867 1249.51 94.7555C1304.36 54.3929 1371.24 37.8525 1437.19 61.423C1452.66 39.947 1478.59 22.3373 1502.34 10.9363C1508.59 7.94029 1525.02 2.59357 1529.33 0L1536 0L1536 72.5468C1482.56 83.3678 1448.02 99.717 1403.32 131.37C1384.71 127.752 1366.01 124.75 1346.96 124.392C1283.02 123.189 1193.15 142.328 1139.89 178.147C1132.92 182.899 1126.15 187.942 1119.6 193.263C1082.41 223.869 1093.47 224.628 1047.53 210.114C1035.16 206.317 1022.64 202.99 1010.01 200.141C931.474 181.608 835.691 178.301 761.258 213.173C706.733 192.069 657.698 194.427 604.007 218.137C599.344 220.209 594.695 222.312 590.06 224.446C572.998 208.259 544.085 195.683 521.339 190.49C488.871 183.077 447.277 187.382 417.58 202.951C385.514 150.587 333.79 113.276 273.993 99.3744C218.783 86.4173 164.411 99.2752 116.764 128.911C110.437 132.846 104.382 136.938 98.8442 141.949C70.4732 122.166 33.8511 111.658 0 106.652L0 0Z"/><path fill="#EF862B" transform="scale(2.60059 2.60059)" d="M0 191.28C41.0392 192.247 82.0634 193.768 123.061 195.843C124.434 204.633 125.958 213.398 127.633 222.135C142.383 220.299 169.451 219.797 185.118 219.024C212.721 219.033 240.914 220.109 268.253 219.851C269.216 228.507 270.162 239.664 271.879 248C272.371 251.882 273.235 257.284 273.517 261.056C274.886 286.551 279.597 290.552 304.848 293.667C305.416 306.027 306.566 320.897 306.765 333.029C317.805 333.555 329.151 334.563 340.195 335.408C341.795 341.326 343.28 347.418 345.537 353.104C355.467 355.184 380.555 357.526 391.159 358.098C392.069 371.297 394.207 384.841 396.387 397.888C363.81 395.938 344.123 397.747 311.895 389.639C297.905 386.119 249.662 382.601 234.65 383.835C236.304 392.51 237.824 401.81 240.446 410.19C256.491 411.852 272.943 424.287 276.986 440.136L277.628 445.746C280.355 450.429 283.575 455.238 287.36 459.138C305.667 460.988 323.976 462.833 342.28 464.71C346.023 465.093 352.843 465.226 355.619 467.304C354.868 469.108 354.626 469.702 352.482 470.246C333.474 475.076 313.097 480.685 293.879 484.254C273.574 487.888 249.119 488.507 228.428 491.17C222.849 491.888 209.77 492.722 204.881 493.889C193.706 495.417 168.676 499.441 157.87 499.75C131.138 502.904 104.876 506.575 77.9587 507.052C75.3408 507.099 72.1859 507.216 69.6563 507.73C46.4961 508.671 22.8449 511.092 0 511.892L0 456.807L0 434.185L0 318.665L0 301.602L0 268.975L0 203.507L0 191.28Z"/><path fill="#ED7115" transform="scale(2.60059 2.60059)" d="M185.118 219.024C212.721 219.033 240.914 220.109 268.253 219.851C269.216 228.507 270.162 239.664 271.879 248C272.371 251.882 273.235 257.284 273.517 261.056C274.886 286.551 279.597 290.552 304.848 293.667C305.416 306.027 306.566 320.897 306.765 333.029C317.805 333.555 329.151 334.563 340.195 335.408C341.795 341.326 343.28 347.418 345.537 353.104C355.467 355.184 380.555 357.526 391.159 358.098C392.069 371.297 394.207 384.841 396.387 397.888C363.81 395.938 344.123 397.747 311.895 389.639C297.905 386.119 249.662 382.601 234.65 383.835C236.304 392.51 237.824 401.81 240.446 410.19L230.852 407.017C219.569 403.255 208.117 399.569 197.339 394.537C194.429 382.287 191.898 372.297 183.719 362.133C181.015 358.305 173.203 353.896 171.845 349.474C167.747 336.137 176.543 306.03 156.739 302.947L148.831 296.991C143.583 283.398 142.35 279.432 133.511 267.927C131.898 252.621 129.938 237.353 127.633 222.135C142.383 220.299 169.451 219.797 185.118 219.024Z"/><path fill="#E94E24" transform="scale(2.60059 2.60059)" d="M127.633 222.135C142.383 220.299 169.451 219.797 185.118 219.024C185.393 229.803 187.101 241.695 188.071 252.535C189.078 263.779 189.73 275.021 190.73 286.224C194.122 290.025 195.414 290.86 199.675 293.772C203.68 309.969 205.61 324.846 207.907 341.334C208.724 347.2 209.646 357.418 210.877 362.797C217.919 363.913 224.232 364.682 231.326 365.428C232.368 371.524 233.349 377.801 234.65 383.835C236.304 392.51 237.824 401.81 240.446 410.19L230.852 407.017C219.569 403.255 208.117 399.569 197.339 394.537C194.429 382.287 191.898 372.297 183.719 362.133C181.015 358.305 173.203 353.896 171.845 349.474C167.747 336.137 176.543 306.03 156.739 302.947L148.831 296.991C143.583 283.398 142.35 279.432 133.511 267.927C131.898 252.621 129.938 237.353 127.633 222.135Z"/><path fill="#FCC051" transform="scale(2.60059 2.60059)" d="M0 434.185C36.4937 435.43 72.9762 436.983 109.444 438.844C165.006 441.849 222.039 445.572 277.628 445.746C280.355 450.429 283.575 455.238 287.36 459.138C305.667 460.988 323.976 462.833 342.28 464.71C346.023 465.093 352.843 465.226 355.619 467.304C354.868 469.108 354.626 469.702 352.482 470.246C333.474 475.076 313.097 480.685 293.879 484.254C273.574 487.888 249.119 488.507 228.428 491.17C222.849 491.888 209.77 492.722 204.881 493.889C193.706 495.417 168.676 499.441 157.87 499.75C131.138 502.904 104.876 506.575 77.9587 507.052C75.3408 507.099 72.1859 507.216 69.6563 507.73C46.4961 508.671 22.8449 511.092 0 511.892L0 456.807L0 434.185Z"/><path fill="#F9A848" transform="scale(2.60059 2.60059)" d="M0 434.185C36.4937 435.43 72.9762 436.983 109.444 438.844C165.006 441.849 222.039 445.572 277.628 445.746C280.355 450.429 283.575 455.238 287.36 459.138C267.288 459.356 246.128 458.621 225.901 458.53L0 456.807L0 434.185Z"/><path fill="#F9A848" transform="scale(2.60059 2.60059)" d="M0 191.28C41.0392 192.247 82.0634 193.768 123.061 195.843C124.434 204.633 125.958 213.398 127.633 222.135C129.938 237.353 131.898 252.621 133.511 267.927C142.35 279.432 143.583 283.398 148.831 296.991L156.739 302.947C151.894 305.25 142.999 304.607 138.853 305.708C93.7385 310.365 44.5459 312.929 0 318.665L0 301.602L0 268.975L0 203.507L0 191.28Z"/><path fill="#EF862B" transform="scale(2.60059 2.60059)" d="M0 203.507C24.2361 205.061 49.8783 204.569 73.764 206.285C74.4525 222.047 74.7546 237.464 75.7785 253.231C69.7819 254.366 64.2973 255.072 58.3924 256.075C59.1542 263.939 59.8408 273.441 61.0337 281.123C40.7713 276.788 20.1827 273.394 0 268.975L0 203.507Z"/><path fill="#FCC051" transform="scale(2.60059 2.60059)" d="M148.831 296.991L156.739 302.947C151.894 305.25 142.999 304.607 138.853 305.708C93.7385 310.365 44.5459 312.929 0 318.665L0 301.602C23.3579 301.565 47.7978 300.336 71.2415 299.713C96.3133 299.047 123.999 299.027 148.831 296.991Z"/><path fill="#F9A848" transform="scale(2.60059 2.60059)" d="M156.739 302.947C176.543 306.03 167.747 336.137 171.845 349.474C173.203 353.896 181.015 358.305 183.719 362.133C191.898 372.297 194.429 382.287 197.339 394.537C208.117 399.569 219.569 403.255 230.852 407.017C230.238 407.198 229.623 407.379 229.009 407.56C207.344 401.551 175.776 393.519 155.242 387.193C150.498 366.879 146.038 346.402 141.567 326.024C140.285 320.182 140.16 310.199 138.853 305.708C142.999 304.607 151.894 305.25 156.739 302.947Z"/><path fill="#E94E24" transform="scale(2.60059 2.60059)" d="M530.583 260.21C532.742 262.025 535.698 291.759 536.584 296.902L537.365 301.373C537.678 304.319 537.954 307.854 538.37 310.732C544.661 313.027 551.008 315.163 557.406 317.139C560.401 324.717 563.562 332.228 566.887 339.667C577.522 343.867 589.101 347.475 599.98 351.226C608.417 354.136 617.678 357.98 625.987 360.663C628.764 376.649 629.286 394.397 631.197 410.622C639.733 417.054 643.663 420.353 650.767 428.317C652.076 430.118 660.575 442.012 661.493 442.792C666.454 450.325 675.864 466.435 682.942 470.686C691.718 478.146 709.573 493.13 716.533 501.549C705.028 501.808 694.947 503.849 684.096 504.25C671.247 506.22 655.923 507.104 643.654 509.681C644.643 512.069 646.465 513.67 648.265 515.585C643.332 516.366 616.032 521.048 612.808 520.373L610.316 522.755C605.878 520.222 596.614 512.502 593.049 511.248C570.802 503.419 544.677 493.843 522.287 487.731C519.417 470.652 512.841 440.729 511.797 424.585C511.721 423.602 511.478 423.122 511.174 422.16C503.669 415.911 414.382 400.889 396.387 397.888C394.207 384.841 392.069 371.297 391.159 358.098C380.555 357.526 355.467 355.184 345.537 353.104C343.28 347.418 341.795 341.326 340.195 335.408C329.151 334.563 317.805 333.555 306.765 333.029C306.566 320.897 305.416 306.027 304.848 293.667C279.597 290.552 274.886 286.551 273.517 261.056C289.967 262.213 309.563 261.88 326.258 262.016C355.943 262.546 385.636 262.494 415.319 261.861L457.498 261.858L467.105 261.768C483.881 261.709 515.067 262.402 530.583 260.21Z"/><path fill="#FA7657" transform="scale(2.60059 2.60059)" d="M530.583 260.21C532.742 262.025 535.698 291.759 536.584 296.902L537.365 301.373C537.678 304.319 537.954 307.854 538.37 310.732C544.661 313.027 551.008 315.163 557.406 317.139C560.401 324.717 563.562 332.228 566.887 339.667C577.522 343.867 589.101 347.475 599.98 351.226C608.417 354.136 617.678 357.98 625.987 360.663C628.764 376.649 629.286 394.397 631.197 410.622C639.733 417.054 643.663 420.353 650.767 428.317C652.076 430.118 660.575 442.012 661.493 442.792C666.454 450.325 675.864 466.435 682.942 470.686C691.718 478.146 709.573 493.13 716.533 501.549C705.028 501.808 694.947 503.849 684.096 504.25C671.247 506.22 655.923 507.104 643.654 509.681C635.221 504.387 626.545 482.379 619.567 478.65C595.727 465.912 569.282 455.111 545.761 441.526C543.037 430.077 539.358 416.313 537.337 404.932C530.196 400.541 518.011 394.458 510.376 390.332C492.844 380.766 475.241 371.333 457.567 362.033C458.542 355.021 458.056 339.825 457.999 331.952L457.831 281.045C457.814 274.905 457.335 267.65 457.498 261.858L467.105 261.768C483.881 261.709 515.067 262.402 530.583 260.21Z"/><path fill="#E94E24" transform="scale(2.60059 2.60059)" d="M457.498 261.858L467.105 261.768C465.271 266.888 468.322 280.538 469.282 286.563C470.981 296.855 472.163 307.225 472.821 317.635C486.855 323.291 500.429 328.118 514.718 334.034C515.943 339.88 520.075 361.657 521.788 366.259C538.778 374.891 561.769 384.746 577.617 394.034C579.432 405.912 580.647 420.837 583.049 432.094C600.913 442.363 630.33 449.28 647.936 460.702C655.353 465.515 665.815 484.741 672.542 491.269C676.131 495.671 681.339 500.773 684.096 504.25C671.247 506.22 655.923 507.104 643.654 509.681C635.221 504.387 626.545 482.379 619.567 478.65C595.727 465.912 569.282 455.111 545.761 441.526C543.037 430.077 539.358 416.313 537.337 404.932C530.196 400.541 518.011 394.458 510.376 390.332C492.844 380.766 475.241 371.333 457.567 362.033C458.542 355.021 458.056 339.825 457.999 331.952L457.831 281.045C457.814 274.905 457.335 267.65 457.498 261.858Z"/><path fill="#FA7657" transform="scale(2.60059 2.60059)" d="M415.319 261.861L457.498 261.858C457.335 267.65 457.814 274.905 457.831 281.045L457.999 331.952C458.056 339.825 458.542 355.021 457.567 362.033C475.241 371.333 492.844 380.766 510.376 390.332C518.011 394.458 530.196 400.541 537.337 404.932C539.358 416.313 543.037 430.077 545.761 441.526C569.282 455.111 595.727 465.912 619.567 478.65C626.545 482.379 635.221 504.387 643.654 509.681C644.643 512.069 646.465 513.67 648.265 515.585C643.332 516.366 616.032 521.048 612.808 520.373L613.174 519.486C606.157 510.98 596.281 502.199 588.651 493.681C582.817 488.576 574.403 474.575 568.421 470.884C554.981 462.592 538.802 454.02 525.489 445.572C523.015 433.833 520.472 419.065 516.998 407.901C496.231 397.075 464.98 380.792 445.041 368.956C442.176 350.682 439.58 332.367 437.252 314.017C432.045 311.781 426.222 309.614 420.901 307.526C420.669 297.195 417.047 272.52 415.319 261.861Z"/><path fill="#7A4B74" transform="scale(2.60059 2.60059)" d="M1196.44 265.993C1194.35 277.978 1194.66 290.622 1194.85 302.792C1178.96 319.842 1158.31 340.594 1141.38 356.719C1118.03 359.687 1091.54 360.872 1067.87 362.705C1055.83 363.636 1032.25 366.293 1021.43 366.115C1020 367.03 1019.96 367.137 1019.63 369.411C1018.03 380.37 1016.66 391.689 1015.17 402.646C1007.25 404.121 999.224 405.689 991.293 407.06C986.797 407.958 982.523 408.829 977.973 409.479C975.421 411.523 968.802 431.612 967.014 436.434C961.261 451.513 955.374 466.541 949.354 481.516C932.193 489.368 904.699 498.296 886.447 504.257C885.511 505.686 880.438 514.92 880.419 514.942C858.146 513.248 836.48 508.64 814.55 505.32C817.85 499.167 823.667 490.676 827.535 484.282C803.406 483.106 780.258 477.961 756.354 474.861C759.489 469.347 763.733 463.446 767.365 458.138L767.841 455.014C773.768 450.669 782.858 444.009 787.74 438.74C790.474 436.797 794.662 432.4 797.196 429.899L797.48 429.29C799.68 427.849 817.166 408.984 820.873 405.262L834.908 404.006C840.413 392.086 845.936 383.315 852.867 372.242C871.399 370.157 897.967 368.79 916.545 368.352C918.911 360.283 922.128 351.689 924.678 343.414C929.255 342.834 935.668 342.653 940.398 342.379L940.891 333.596C955.398 327.945 966.12 322.618 981.601 317.642L984.148 309.91C986.391 301.147 988.919 292.236 991.293 283.489C1000.88 282.293 1011.18 281.162 1020.49 278.718C1027.07 276.919 1043.88 271.971 1049.9 271.404C1061.4 270.323 1076.66 270.114 1088.47 269.672C1092.37 269.288 1099.61 269.329 1103.77 269.234L1156.51 267.67C1169.17 266.669 1183.42 266.752 1196.44 265.993Z"/><path fill="#554784" transform="scale(2.60059 2.60059)" d="M991.293 283.489C1000.88 282.293 1011.18 281.162 1020.49 278.718C1019.71 296.553 1018.46 317.586 1018.45 335.287C1008.75 343.456 997.487 352.274 987.563 360.362C979.23 367.153 961.499 383.699 953.222 388.259C940.948 395.02 916.983 402.428 903.482 407.843C898.155 409.98 887.458 412.871 883.411 416.36C871.268 426.828 861.042 440.514 849.2 451.664L790.964 456.394C786.201 456.764 771.359 457.169 767.365 458.138L767.841 455.014C773.768 450.669 782.858 444.009 787.74 438.74C790.474 436.797 794.662 432.4 797.196 429.899L797.48 429.29C799.68 427.849 817.166 408.984 820.873 405.262L834.908 404.006C840.413 392.086 845.936 383.315 852.867 372.242C871.399 370.157 897.967 368.79 916.545 368.352C918.911 360.283 922.128 351.689 924.678 343.414C929.255 342.834 935.668 342.653 940.398 342.379L940.891 333.596C955.398 327.945 966.12 322.618 981.601 317.642L984.148 309.91C986.391 301.147 988.919 292.236 991.293 283.489Z"/><path fill="#554784" transform="scale(2.60059 2.60059)" d="M1196.44 265.993C1194.35 277.978 1194.66 290.622 1194.85 302.792C1178.96 319.842 1158.31 340.594 1141.38 356.719C1118.03 359.687 1091.54 360.872 1067.87 362.705C1055.83 363.636 1032.25 366.293 1021.43 366.115C1020 367.03 1019.96 367.137 1019.63 369.411C1018.03 380.37 1016.66 391.689 1015.17 402.646C1007.25 404.121 999.224 405.689 991.293 407.06C989.901 406.213 990.391 406.802 989.873 405.161C995.964 391.978 1002.51 383.722 1011.65 372.617C1019.28 363.337 1026.01 352.619 1034.46 344.074C1048.32 343.646 1065.42 343.414 1079 342.039C1080.66 322.725 1086.74 290.422 1089.87 270.554L1088.47 269.672C1092.37 269.288 1099.61 269.329 1103.77 269.234L1156.51 267.67C1169.17 266.669 1183.42 266.752 1196.44 265.993Z"/><path fill="#7A4B74" transform="scale(2.60059 2.60059)" d="M1103.77 269.234L1156.51 267.67L1154.83 283.85C1137.98 300.614 1119.49 318.337 1103.58 335.565C1101.47 333.111 1099.21 330.352 1097.06 327.983C1100.66 323.624 1105.62 317.974 1108.64 313.361C1108.02 298.734 1104.98 283.693 1103.77 269.234Z"/><path fill="#7E84C0" transform="scale(2.60059 2.60059)" d="M536.584 296.902C547.075 295.789 567.064 296.19 577.958 296.297C641.088 296.916 705.564 305.335 768.638 307.218C790.673 307.908 812.717 308.292 834.762 308.371C845.344 308.384 855.315 308.534 865.903 307.921C875.942 307.34 895.08 299.194 903.622 299.703C917.348 300.521 935.626 304.055 949.752 306.144C961.065 307.817 973.493 308.303 984.148 309.91L981.601 317.642C966.12 322.618 955.398 327.945 940.891 333.596L940.398 342.379C935.668 342.653 929.255 342.834 924.678 343.414C922.128 351.689 918.911 360.283 916.545 368.352C897.967 368.79 871.399 370.157 852.867 372.242C845.936 383.315 840.413 392.086 834.908 404.006L820.873 405.262C817.166 408.984 799.68 427.849 797.48 429.29L797.196 429.899C794.662 432.4 790.474 436.797 787.74 438.74C782.858 444.009 773.768 450.669 767.841 455.014C757.158 461.492 747.506 469.534 739.204 478.873L738.488 477.852C734.256 475.585 689.091 470.098 682.942 470.686C675.864 466.435 666.454 450.325 661.493 442.792C660.575 442.012 652.076 430.118 650.767 428.317C643.663 420.353 639.733 417.054 631.197 410.622C629.286 394.397 628.764 376.649 625.987 360.663C617.678 357.98 608.417 354.136 599.98 351.226C589.101 347.475 577.522 343.867 566.887 339.667C563.562 332.228 560.401 324.717 557.406 317.139C551.008 315.163 544.661 313.027 538.37 310.732C537.954 307.854 537.678 304.319 537.365 301.373L536.584 296.902Z"/><path fill="#7278B7" transform="scale(2.60059 2.60059)" d="M537.365 301.373C538.854 299.932 537.988 300.248 539.901 300.27C558.639 300.483 575.845 301.129 594.473 303.147C609.458 304.771 625.382 307.894 640.102 309.304C647.817 317.579 653.007 328.292 659.976 335.648C668.98 337.431 690.609 338.255 694.3 345.3C698.411 353.146 700.825 368.243 704.494 377.066C717.053 384.138 731.023 392.17 742.05 401.515C752.643 410.491 762.348 420.872 773.599 429.136L797.48 429.29L797.196 429.899C794.662 432.4 790.474 436.797 787.74 438.74C782.858 444.009 773.768 450.669 767.841 455.014C757.158 461.492 747.506 469.534 739.204 478.873L738.488 477.852C734.256 475.585 689.091 470.098 682.942 470.686C675.864 466.435 666.454 450.325 661.493 442.792C660.575 442.012 652.076 430.118 650.767 428.317C643.663 420.353 639.733 417.054 631.197 410.622C629.286 394.397 628.764 376.649 625.987 360.663C617.678 357.98 608.417 354.136 599.98 351.226C589.101 347.475 577.522 343.867 566.887 339.667C563.562 332.228 560.401 324.717 557.406 317.139C551.008 315.163 544.661 313.027 538.37 310.732C537.954 307.854 537.678 304.319 537.365 301.373Z"/><path fill="#127BA1" transform="scale(2.60059 2.60059)" d="M661.493 442.792C664.607 442.204 679.411 443.066 683.986 442.841C718.546 440.911 753.136 439.544 787.74 438.74C782.858 444.009 773.768 450.669 767.841 455.014C757.158 461.492 747.506 469.534 739.204 478.873L738.488 477.852C734.256 475.585 689.091 470.098 682.942 470.686C675.864 466.435 666.454 450.325 661.493 442.792Z"/><path fill="#554784" transform="scale(2.60059 2.60059)" d="M650.767 428.317C699.573 429.123 748.384 429.65 797.196 429.899C794.662 432.4 790.474 436.797 787.74 438.74C753.136 439.544 718.546 440.911 683.986 442.841C679.411 443.066 664.607 442.204 661.493 442.792C660.575 442.012 652.076 430.118 650.767 428.317Z"/><path fill="#E94E24" transform="scale(2.60059 2.60059)" d="M1212.08 224.598C1229.36 226.607 1246.57 229.444 1263.82 231.282C1270.1 231.951 1280.83 230.785 1287.57 230.689C1327.54 230.123 1368.35 227.054 1408.27 228.162C1390.22 239.46 1388.67 238.47 1367.59 240.562C1355.18 241.797 1342.77 242.968 1330.34 244.075C1326.19 244.451 1313.13 244.573 1310.84 247.613C1308.52 261.595 1305.46 275.42 1302.63 289.291C1300.29 300.789 1294.39 330.524 1281.77 334.164C1258.47 340.019 1237.57 345.394 1213.37 346.316C1190.14 347.201 1164.2 355.546 1141.38 356.719C1158.31 340.594 1178.96 319.842 1194.85 302.792C1194.66 290.622 1194.35 277.978 1196.44 265.993C1201.3 252.192 1207.12 238.519 1212.08 224.598Z"/><path fill="#F79A46" transform="scale(2.60059 2.60059)" d="M1212.08 224.598L1213.18 222.893C1219.95 219.909 1259.5 218.354 1269.55 217.301C1282.74 215.919 1290.11 205.152 1302.02 204.251C1313.61 203.375 1327.12 203.125 1338.89 202.851C1362.87 202.241 1386.87 201.906 1410.86 201.845C1451.5 201.59 1495.91 199.807 1536 200.939L1536 245.225L1536 264.884C1518.51 265.04 1493.47 266.659 1476.96 266.154C1449.82 262.912 1421.39 260.431 1394.09 257.71C1392.69 257.1 1375.28 256.423 1371.74 256.024C1363.52 255.529 1355.1 254.379 1346.94 253.301C1340.07 252.666 1314.36 251.233 1310.84 247.613C1313.13 244.573 1326.19 244.451 1330.34 244.075C1342.77 242.968 1355.18 241.797 1367.59 240.562C1388.67 238.47 1390.22 239.46 1408.27 228.162C1368.35 227.054 1327.54 230.123 1287.57 230.689C1280.83 230.785 1270.1 231.951 1263.82 231.282C1246.57 229.444 1229.36 226.607 1212.08 224.598Z"/><path fill="#FCC051" transform="scale(2.60059 2.60059)" d="M1346.94 253.301C1351.7 249.823 1517.69 245.448 1536 245.225L1536 264.884C1518.51 265.04 1493.47 266.659 1476.96 266.154C1449.82 262.912 1421.39 260.431 1394.09 257.71C1392.69 257.1 1375.28 256.423 1371.74 256.024C1363.52 255.529 1355.1 254.379 1346.94 253.301Z"/><path fill="#F9A848" transform="scale(2.60059 2.60059)" d="M271.879 248C304.006 248.262 336.13 248.822 368.247 249.68C409.2 250.372 450.238 250.736 491.055 254.596C501.002 255.537 521.745 256.813 530.583 260.21C515.067 262.402 483.881 261.709 467.105 261.768L457.498 261.858L415.319 261.861C385.636 262.494 355.943 262.546 326.258 262.016C309.563 261.88 289.967 262.213 273.517 261.056C273.235 257.284 272.371 251.882 271.879 248Z"/><path fill="#F9A848" transform="scale(2.60059 2.60059)" d="M355.619 467.304C357.913 474.744 363.003 498.075 365.487 502.581C369.044 509.033 384.481 524.336 390.136 531.919C404.778 551.554 411.833 568.3 422.483 589.379C426.226 598.764 424.824 602.39 435.254 602.991C453.102 604.011 470.942 605.168 488.773 606.461C499.711 607.237 513.134 608.515 523.899 608.418C533.354 608.899 567.527 610.183 574.768 611.486C587.864 613.843 621.441 621.673 632.808 624.486C645.998 627.751 736.804 645.278 741.393 648.093C734.128 654.64 724.36 661.764 716.505 667.901C719.51 670.23 733.053 680.019 733.649 682.918C724.023 685.847 710.684 688.234 700.543 690.384C680.179 694.577 659.862 699 639.598 703.652C648.647 706.837 684.229 715.061 687.943 720.448C682.501 722.086 668.459 723.259 662.021 723.942C649.13 725.267 636.256 726.753 623.402 728.4C559.801 736.317 487.195 745.721 423.289 750.148C434.657 753.789 478.147 758.712 485.842 763.704C487.281 769.541 488.685 788.568 489.29 795.298L494.879 857.126C505.614 867.496 534.834 891.254 546.593 899.64C556.602 928.151 566.322 956.763 575.75 985.472C577.747 991.381 586.651 1018.66 588.897 1022.85L588.754 1024L430.455 1024L308.376 1024L172.119 1024L0 1024L0 902.705L0 747.526L0 511.892C22.8449 511.092 46.4961 508.671 69.6563 507.73C72.1859 507.216 75.3408 507.099 77.9587 507.052C104.876 506.575 131.138 502.904 157.87 499.75C168.676 499.441 193.706 495.417 204.881 493.889C209.77 492.722 222.849 491.888 228.428 491.17C249.119 488.507 273.574 487.888 293.879 484.254C313.097 480.685 333.474 475.076 352.482 470.246C354.626 469.702 354.868 469.108 355.619 467.304Z"/><path fill="#F79A46" transform="scale(2.60059 2.60059)" d="M355.619 467.304C357.913 474.744 363.003 498.075 365.487 502.581C369.044 509.033 384.481 524.336 390.136 531.919C404.778 551.554 411.833 568.3 422.483 589.379C426.226 598.764 424.824 602.39 435.254 602.991C433.012 603.208 430.375 602.993 429.094 604.256C430.799 613.678 435.583 623.549 429.193 632.925C419.578 647.033 376.448 663.827 360.132 668.809C323.39 681.477 286.927 694.078 249.239 703.76C245.782 704.648 240.895 705.75 237.617 706.99C211.777 714.246 163.725 726.548 137.913 729.35C108.584 734.702 79.0866 739.088 49.4688 742.5C33.9505 744.381 15.5338 746.751 0 747.526L0 511.892C22.8449 511.092 46.4961 508.671 69.6563 507.73C72.1859 507.216 75.3408 507.099 77.9587 507.052C104.876 506.575 131.138 502.904 157.87 499.75C168.676 499.441 193.706 495.417 204.881 493.889C209.77 492.722 222.849 491.888 228.428 491.17C249.119 488.507 273.574 487.888 293.879 484.254C313.097 480.685 333.474 475.076 352.482 470.246C354.626 469.702 354.868 469.108 355.619 467.304Z"/><path fill="#EF862B" transform="scale(2.60059 2.60059)" d="M355.619 467.304C357.913 474.744 363.003 498.075 365.487 502.581C369.044 509.033 384.481 524.336 390.136 531.919C404.778 551.554 411.833 568.3 422.483 589.379C426.226 598.764 424.824 602.39 435.254 602.991C433.012 603.208 430.375 602.993 429.094 604.256C430.799 613.678 435.583 623.549 429.193 632.925C419.578 647.033 376.448 663.827 360.132 668.809C323.39 681.477 286.927 694.078 249.239 703.76C245.782 704.648 240.895 705.75 237.617 706.99L225.428 637.961C231.15 636.916 234.815 636.495 240.566 636.005C238.88 627.773 237.814 616.352 236.788 607.845L230.794 556.069C225.129 557.142 219.412 558.526 213.784 559.819C210.817 545.532 209.93 525.312 207.323 510.508C206.537 506.041 206.212 497.775 204.881 493.889C209.77 492.722 222.849 491.888 228.428 491.17C249.119 488.507 273.574 487.888 293.879 484.254C313.097 480.685 333.474 475.076 352.482 470.246C354.626 469.702 354.868 469.108 355.619 467.304Z"/><path fill="#F79A46" transform="scale(2.60059 2.60059)" d="M355.619 467.304C357.913 474.744 363.003 498.075 365.487 502.581C369.044 509.033 384.481 524.336 390.136 531.919C404.778 551.554 411.833 568.3 422.483 589.379C426.226 598.764 424.824 602.39 435.254 602.991C433.012 603.208 430.375 602.993 429.094 604.256C430.799 613.678 435.583 623.549 429.193 632.925C419.578 647.033 376.448 663.827 360.132 668.809C359.089 659.818 350.126 639.615 343.509 632.571C340.644 638.132 337.75 646.589 335.49 652.663C331.174 637.977 327.94 617.026 324.365 601.448C315.172 561.385 306.956 523.295 293.879 484.254C313.097 480.685 333.474 475.076 352.482 470.246C354.626 469.702 354.868 469.108 355.619 467.304Z"/><path fill="#EF862B" transform="scale(2.60059 2.60059)" d="M0 511.892C22.8449 511.092 46.4961 508.671 69.6563 507.73C72.5297 507.856 74.2673 507.396 76.2058 508.86C84.2789 545.82 93.5724 586.419 100.529 623.329L116.2 622.777L127.397 681.432C129.146 690.966 134.636 721.266 137.913 729.35C108.584 734.702 79.0866 739.088 49.4688 742.5C33.9505 744.381 15.5338 746.751 0 747.526L0 511.892Z"/><path fill="#ED7115" transform="scale(2.60059 2.60059)" d="M157.87 499.75C168.676 499.441 193.706 495.417 204.881 493.889C206.212 497.775 206.537 506.041 207.323 510.508C209.93 525.312 210.817 545.532 213.784 559.819C219.412 558.526 225.129 557.142 230.794 556.069L236.788 607.845C237.814 616.352 238.88 627.773 240.566 636.005C234.815 636.495 231.15 636.916 225.428 637.961C223.087 629.299 218.086 602.06 217.002 593.436C202.926 596.303 188.411 598.764 174.245 601.444C173.591 593.921 172.15 585.806 170.784 578.342C166.008 552.245 162.47 525.858 157.87 499.75Z"/><path fill="#B83324" transform="scale(2.60059 2.60059)" d="M361.745 804.717C373.744 800.147 392.09 795.243 404.893 791.16C431.976 782.306 458.961 773.153 485.842 763.704C487.281 769.541 488.685 788.568 489.29 795.298L494.879 857.126C505.614 867.496 534.834 891.254 546.593 899.64C556.602 928.151 566.322 956.763 575.75 985.472C577.747 991.381 586.651 1018.66 588.897 1022.85L588.754 1024L430.455 1024L308.376 1024C307.665 1019.16 307.199 1014.11 306.762 1009.23C302.473 961.33 297.836 913.427 293.891 865.507C293.419 859.781 293.518 854.042 292.678 848.333L291.164 847.332C297.97 845.499 381.14 808.514 385.66 805.143C378.616 805.375 368.977 804.875 361.745 804.717Z"/><path fill="#D83F1B" transform="scale(2.60059 2.60059)" d="M385.66 805.143L387.375 805.672C388.138 807.884 388.844 825.892 389.088 829.537C390.79 853.093 392.2 876.67 393.319 900.262C393.977 914.463 394.262 931.258 396.106 945.233C396.894 951.207 403.552 964.376 406.17 970.671C413.488 988.264 423.187 1006.54 430.455 1024L308.376 1024C307.665 1019.16 307.199 1014.11 306.762 1009.23C302.473 961.33 297.836 913.427 293.891 865.507C293.419 859.781 293.518 854.042 292.678 848.333L291.164 847.332C297.97 845.499 381.14 808.514 385.66 805.143Z"/><path fill="#B83324" transform="scale(2.60059 2.60059)" d="M141.495 857.578C190.564 852.964 241.421 851.678 291.164 847.332L292.678 848.333C293.518 854.042 293.419 859.781 293.891 865.507C297.836 913.427 302.473 961.33 306.762 1009.23C307.199 1014.11 307.665 1019.16 308.376 1024L172.119 1024L0 1024L0 902.705C6.7649 900.231 13.8954 897.744 20.826 895.781C61.2625 884.333 101.269 869.41 141.495 857.578Z"/><path fill="#D83F1B" transform="scale(2.60059 2.60059)" d="M0 902.705C6.7649 900.231 13.8954 897.744 20.826 895.781C61.2625 884.333 101.269 869.41 141.495 857.578C143.318 869.57 145.978 882.443 148.453 894.38C157.303 937.069 162.64 981.537 172.119 1024L0 1024L0 902.705Z"/><path fill="#B83324" transform="scale(2.60059 2.60059)" d="M1310.84 247.613C1314.36 251.233 1340.07 252.666 1346.94 253.301C1355.1 254.379 1363.52 255.529 1371.74 256.024C1375.28 256.423 1392.69 257.1 1394.09 257.71C1421.39 260.431 1449.82 262.912 1476.96 266.154C1493.47 266.659 1518.51 265.04 1536 264.884L1536 457.298L1536 488.685L1536 569.994L1536 631.213C1529.65 632.184 1521.03 633.272 1515.02 634.854C1510.63 651.424 1505.93 667.911 1500.93 684.306C1498.76 691.639 1494.23 705.662 1492.89 712.823C1483.5 710.637 1464.01 708.805 1453.83 707.596C1431.71 705 1409.62 702.224 1387.55 699.269C1376.53 697.771 1361.34 695.85 1350.99 692.661C1345 707.618 1336.72 729.195 1329.51 743.095C1325.67 750.521 1302.57 801.07 1299.82 802.952C1282.43 800.256 1263.76 799.83 1246.18 797.652C1219.31 794.325 1192.53 791.022 1165.54 788.743C1158.62 788.158 1151.25 787.398 1144.44 786.104C1158.8 770.035 1175.95 747.875 1190.17 730.838C1186.96 729.324 1136.26 724.015 1129.85 723.55C1131.64 720.172 1135.46 714.109 1136.04 710.889L1134.88 709.897C1126.81 709.684 1110.35 706.907 1101.88 705.656C1085.25 703.26 1068.63 700.708 1052.04 698C1037.32 695.563 1019.29 692.253 1004.49 691.117C1017.63 687.145 1042.43 680.7 1053.8 674.268C1045.34 671.947 1012.68 670.228 1000.87 668.249C1003.71 664.585 1006.49 660.874 1009.21 657.119L1008.88 655.88L1010.68 655.303C1024.22 636.532 1041 605.029 1055.3 588.196C1064.28 577.638 1099.2 565.581 1111.62 557.433C1119.23 552.442 1127.22 552.355 1131.4 542.248C1128.34 523.123 1121.42 504.431 1118.09 485.517C1117.25 480.718 1116.12 450.52 1117.35 446.632L1116.92 446.153C1118.71 443.551 1157.49 429.496 1161.8 428C1176.96 422.354 1195.07 417.284 1210.6 412.757C1213.7 410.787 1214.78 397.722 1215.31 393.913C1218.54 390.583 1220.82 388.568 1224.61 385.966C1231.1 380.113 1243.92 370.859 1248.93 365.385C1256.24 360.163 1276.23 342.303 1281.92 335.738L1281.77 334.164C1294.39 330.524 1300.29 300.789 1302.63 289.291C1305.46 275.42 1308.52 261.595 1310.84 247.613Z"/><path fill="#F9A848" transform="scale(2.60059 2.60059)" d="M1440.36 525.61C1443.95 514.338 1446.63 502.297 1450.57 491.073C1451.57 488.212 1451.7 487.689 1454.04 486.583C1467.01 487.904 1484.93 487.836 1498.19 488.253C1508.51 488.578 1526.04 489.323 1536 488.685L1536 569.994L1536 631.213C1529.65 632.184 1521.03 633.272 1515.02 634.854C1510.63 651.424 1505.93 667.911 1500.93 684.306C1498.76 691.639 1494.23 705.662 1492.89 712.823C1483.5 710.637 1464.01 708.805 1453.83 707.596C1431.71 705 1409.62 702.224 1387.55 699.269C1376.53 697.771 1361.34 695.85 1350.99 692.661C1345 707.618 1336.72 729.195 1329.51 743.095C1325.67 750.521 1302.57 801.07 1299.82 802.952C1282.43 800.256 1263.76 799.83 1246.18 797.652C1219.31 794.325 1192.53 791.022 1165.54 788.743C1158.62 788.158 1151.25 787.398 1144.44 786.104C1158.8 770.035 1175.95 747.875 1190.17 730.838C1189.58 731.279 1239.37 669.796 1242.52 665.007C1244.82 661.52 1254.06 621.837 1255.7 614.855C1262.46 612.67 1274.81 610.862 1282.14 609.252C1303.42 604.581 1326.52 601.186 1347.47 595.691C1349.57 590.097 1356.04 578.168 1359.1 572.404C1364.49 562.253 1370.19 550.579 1375.97 540.767C1397.16 535.107 1419.08 531.137 1440.36 525.61Z"/><path fill="#D83F1B" transform="scale(2.60059 2.60059)" d="M1255.7 614.855L1366.6 639.926L1417.61 651.741C1424.63 653.306 1435.59 656.072 1442.43 657.003C1430.4 661.399 1357.2 685.611 1352.39 689.517L1350.99 692.661C1345 707.618 1336.72 729.195 1329.51 743.095C1325.67 750.521 1302.57 801.07 1299.82 802.952C1282.43 800.256 1263.76 799.83 1246.18 797.652C1219.31 794.325 1192.53 791.022 1165.54 788.743C1158.62 788.158 1151.25 787.398 1144.44 786.104C1158.8 770.035 1175.95 747.875 1190.17 730.838C1189.58 731.279 1239.37 669.796 1242.52 665.007C1244.82 661.52 1254.06 621.837 1255.7 614.855Z"/><path fill="#E94E24" transform="scale(2.60059 2.60059)" d="M1440.36 525.61C1443.95 514.338 1446.63 502.297 1450.57 491.073C1451.57 488.212 1451.7 487.689 1454.04 486.583C1467.01 487.904 1484.93 487.836 1498.19 488.253C1508.51 488.578 1526.04 489.323 1536 488.685L1536 569.994C1483.17 575.769 1430.13 584.158 1377.32 590.374C1367.12 591.574 1357.44 593.215 1347.47 595.691C1349.57 590.097 1356.04 578.168 1359.1 572.404C1364.49 562.253 1370.19 550.579 1375.97 540.767C1397.16 535.107 1419.08 531.137 1440.36 525.61Z"/><path fill="#ED7115" transform="scale(2.60059 2.60059)" d="M1310.84 247.613C1314.36 251.233 1340.07 252.666 1346.94 253.301C1355.1 254.379 1363.52 255.529 1371.74 256.024C1375.28 256.423 1392.69 257.1 1394.09 257.71C1421.39 260.431 1449.82 262.912 1476.96 266.154C1493.47 266.659 1518.51 265.04 1536 264.884L1536 457.298C1492.69 455.575 1446.58 457.304 1403.87 455.396C1398.62 455.471 1373.58 452.11 1366.66 451.307C1336.75 447.839 1303.98 445.504 1274.66 439.864C1259.93 433.443 1220.72 421.183 1210.6 412.757C1213.7 410.787 1214.78 397.722 1215.31 393.913C1218.54 390.583 1220.82 388.568 1224.61 385.966C1231.1 380.113 1243.92 370.859 1248.93 365.385C1256.24 360.163 1276.23 342.303 1281.92 335.738L1281.77 334.164C1294.39 330.524 1300.29 300.789 1302.63 289.291C1305.46 275.42 1308.52 261.595 1310.84 247.613Z"/><path fill="#EF862B" transform="scale(2.60059 2.60059)" d="M1310.84 247.613C1314.36 251.233 1340.07 252.666 1346.94 253.301C1355.1 254.379 1363.52 255.529 1371.74 256.024C1371.76 262.66 1369.98 295.833 1372.45 298.966C1372.05 299.344 1371.64 299.723 1371.24 300.101C1367.85 322.598 1364.07 345.045 1359.45 367.323C1358.51 371.861 1357.41 376.362 1356.29 380.858C1331.91 378.321 1337.07 384.04 1317.28 392.101C1306.68 397.878 1292.9 405.365 1281.83 409.969C1280.03 418.334 1277.24 432.069 1274.66 439.864C1259.93 433.443 1220.72 421.183 1210.6 412.757C1213.7 410.787 1214.78 397.722 1215.31 393.913C1218.54 390.583 1220.82 388.568 1224.61 385.966C1231.1 380.113 1243.92 370.859 1248.93 365.385C1256.24 360.163 1276.23 342.303 1281.92 335.738L1281.77 334.164C1294.39 330.524 1300.29 300.789 1302.63 289.291C1305.46 275.42 1308.52 261.595 1310.84 247.613Z"/><path fill="#F79A46" transform="scale(2.60059 2.60059)" d="M1215.31 393.913C1218.54 390.583 1220.82 388.568 1224.61 385.966C1242.36 387.847 1258.22 388.522 1275.96 389.167C1284.14 389.464 1311.14 390.172 1317.28 392.101C1306.68 397.878 1292.9 405.365 1281.83 409.969C1280.03 418.334 1277.24 432.069 1274.66 439.864C1259.93 433.443 1220.72 421.183 1210.6 412.757C1213.7 410.787 1214.78 397.722 1215.31 393.913Z"/><path fill="#E94E24" transform="scale(2.60059 2.60059)" d="M1536 264.884L1536 457.298C1492.69 455.575 1446.58 457.304 1403.87 455.396C1406.91 450.937 1417.25 441.137 1421.44 436.34C1433.81 422.155 1442.08 410.114 1451.43 394.002C1458.53 393.391 1465.94 392.924 1472.9 391.556C1481.65 373.628 1481.68 354.329 1482.01 334.806L1468.67 334.398C1470.27 317.076 1473.75 282.557 1476.96 266.154C1493.47 266.659 1518.51 265.04 1536 264.884Z"/><path fill="#F79A46" transform="scale(2.60059 2.60059)" d="M1371.74 256.024C1375.28 256.423 1392.69 257.1 1394.09 257.71L1392.47 258.446C1390.95 264.403 1386.34 293.81 1385.74 300.312C1381.31 299.89 1376.88 299.441 1372.45 298.966C1369.98 295.833 1371.76 262.66 1371.74 256.024Z"/><path fill="#E94E24" transform="scale(2.60059 2.60059)" d="M1131.4 542.248C1128.34 523.123 1121.42 504.431 1118.09 485.517C1117.25 480.718 1116.12 450.52 1117.35 446.632C1139.29 451.404 1161.27 455.974 1183.29 460.341C1195.27 462.74 1208.65 465.731 1220.68 467.424C1216.14 468.069 1197.42 469.811 1195.03 471.184C1199.25 473.436 1226.93 484.463 1231.53 485.723C1229.35 503.792 1226.03 523.359 1222.87 541.975C1220.17 557.841 1217.52 592.031 1209.32 604.897C1200.24 619.148 1177.14 626.862 1171.43 645.594C1161.48 666.622 1148.14 688.231 1137.54 709.144C1137.17 709.827 1135.58 709.831 1134.88 709.897C1126.81 709.684 1110.35 706.907 1101.88 705.656C1085.25 703.26 1068.63 700.708 1052.04 698C1037.32 695.563 1019.29 692.253 1004.49 691.117C1017.63 687.145 1042.43 680.7 1053.8 674.268C1045.34 671.947 1012.68 670.228 1000.87 668.249C1003.71 664.585 1006.49 660.874 1009.21 657.119L1008.88 655.88L1010.68 655.303C1024.22 636.532 1041 605.029 1055.3 588.196C1064.28 577.638 1099.2 565.581 1111.62 557.433C1119.23 552.442 1127.22 552.355 1131.4 542.248Z"/><path fill="#B83324" transform="scale(2.60059 2.60059)" d="M1131.4 542.248C1128.34 523.123 1121.42 504.431 1118.09 485.517C1117.25 480.718 1116.12 450.52 1117.35 446.632C1139.29 451.404 1161.27 455.974 1183.29 460.341C1195.27 462.74 1208.65 465.731 1220.68 467.424C1216.14 468.069 1197.42 469.811 1195.03 471.184C1194.3 484.816 1189.88 501.993 1188.52 515.888C1181.34 516.233 1175.12 516.659 1167.98 517.417C1167.94 536.801 1167.49 556.183 1166.62 575.548C1158.05 576.56 1146.86 578.212 1138.44 578.711C1138.47 587.941 1138.4 597.348 1138.55 606.561C1123.28 619.928 1105.35 633.449 1089.54 646.434C1081.01 653.436 1062.44 668.948 1053.8 674.268C1045.34 671.947 1012.68 670.228 1000.87 668.249C1003.71 664.585 1006.49 660.874 1009.21 657.119L1008.88 655.88L1010.68 655.303C1024.22 636.532 1041 605.029 1055.3 588.196C1064.28 577.638 1099.2 565.581 1111.62 557.433C1119.23 552.442 1127.22 552.355 1131.4 542.248Z"/><path fill="#F9A848" transform="scale(2.60059 2.60059)" d="M1161.8 428C1176.96 422.354 1195.07 417.284 1210.6 412.757C1220.72 421.183 1259.93 433.443 1274.66 439.864C1303.98 445.504 1336.75 447.839 1366.66 451.307C1373.58 452.11 1398.62 455.471 1403.87 455.396C1446.58 457.304 1492.69 455.575 1536 457.298L1536 488.685C1526.04 489.323 1508.51 488.578 1498.19 488.253C1484.93 487.836 1467.01 487.904 1454.04 486.583C1465.34 482.368 1477.29 479.715 1488.56 475.474C1472.67 475.431 1454.65 476.399 1438.67 476.898L1332.42 480.507C1303.46 481.462 1274.43 481.059 1245.58 483.852C1240.91 484.303 1236.03 484.465 1231.53 485.723C1226.93 484.463 1199.25 473.436 1195.03 471.184C1197.42 469.811 1216.14 468.069 1220.68 467.424C1208.65 465.731 1195.27 462.74 1183.29 460.341C1161.27 455.974 1139.29 451.404 1117.35 446.632L1116.92 446.153C1118.71 443.551 1157.49 429.496 1161.8 428Z"/><path fill="#076A7A" transform="scale(2.60059 2.60059)" d="M1015.17 402.646C1016.66 391.689 1018.03 380.37 1019.63 369.411C1019.96 367.137 1020 367.03 1021.43 366.115C1026.43 368.256 1034.48 369.378 1039.99 370.535C1058.81 374.485 1077.06 375.78 1096.09 377.356C1103.77 377.992 1122.67 379.323 1129.73 381.091L1131.67 381.141C1141.45 381.467 1162.7 383.833 1170.96 381.876C1168.68 396.912 1164.98 413.012 1161.8 428C1157.49 429.496 1118.71 443.551 1116.92 446.153L1117.35 446.632C1116.12 450.52 1117.25 480.718 1118.09 485.517C1121.42 504.431 1128.34 523.123 1131.4 542.248C1127.22 552.355 1119.23 552.442 1111.62 557.433C1099.2 565.581 1064.28 577.638 1055.3 588.196C1041 605.029 1024.22 636.532 1010.68 655.303L1008.88 655.88L1009.21 657.119C1006.49 660.874 1003.71 664.585 1000.87 668.249C1012.68 670.228 1045.34 671.947 1053.8 674.268C1042.43 680.7 1017.63 687.145 1004.49 691.117C1019.29 692.253 1037.32 695.563 1052.04 698C1068.63 700.708 1085.25 703.26 1101.88 705.656C1110.35 706.907 1126.81 709.684 1134.88 709.897L1136.04 710.889C1135.46 714.109 1131.64 720.172 1129.85 723.55C1136.26 724.015 1186.96 729.324 1190.17 730.838C1175.95 747.875 1158.8 770.035 1144.44 786.104C1151.25 787.398 1158.62 788.158 1165.54 788.743C1192.53 791.022 1219.31 794.325 1246.18 797.652C1263.76 799.83 1282.43 800.256 1299.82 802.952C1296.2 811.345 1291.38 821.504 1285.27 828.228C1272.72 842.05 1258.83 854.985 1245.12 867.628C1233.99 871.454 1219.74 874.568 1208.12 877.909C1201.97 891.38 1195.68 908.958 1190.28 923.066C1170.25 929.641 1135.85 937.753 1114.66 942.694C1100.86 964.743 1089.27 989.537 1076.22 1012.11C1074.06 1015.86 1071.79 1020.1 1069.92 1024L705.415 1024C710.653 1020.44 718.07 1017.5 723.876 1014.53C736.787 1007.93 752.263 1001.19 764.504 993.709C769.544 992.081 778.43 985.559 784.794 983.85C806.572 978 829.153 974.003 850.656 967.232L853.399 957.442C832.321 953.605 811.957 952.79 791.989 949.327C811.263 942.072 830.909 934.916 850.102 927.571C873.789 918.506 894.868 909.24 919.557 902.216C912.178 898.012 904.846 894.611 897.192 890.978C914.735 884.651 933.419 881.016 951.387 876.09C960.667 873.546 967.719 866.494 974.55 860.116C947.006 853.354 918.047 852.286 892.632 840.268C897.795 837.473 908.121 833.248 913.98 830.574C926.75 825.372 940.877 816.491 954.202 813.144C991.177 803.856 1030.73 800.23 1067.87 792.615C1038.15 779.413 1003.66 766.409 973.468 753.407C967.373 750.783 943.887 747.848 935.714 746.285C896.124 738.716 855.515 732.869 817.899 717.651C814.227 716.177 795.428 707.817 801.368 702.087C813.142 691.787 834.761 692.603 849.56 691.173C854.36 690.709 874.738 692.451 876.649 688.892C872.42 684.475 853.54 685.396 849.441 677.58C849.994 672.992 855.765 670.456 860.25 666.861C842.694 657.846 824.284 650.603 805.292 645.238C796.288 642.718 787.126 640.464 778.171 637.753C772.233 635.955 775.718 636.406 775.613 632.333C771.288 626.376 749.739 622.276 742.765 617.239C730.867 608.645 739.456 609.053 744.038 601.895C742.787 595.59 735.44 597.837 732.932 591.194C734.354 580.793 751.885 583.894 750.923 575.431C749.012 572.252 739.891 564.171 736.746 561.968C731.168 558.059 713.793 559.92 712.022 551.07C719.022 539.568 779.23 540.694 782.969 533.05C781.541 528.996 774.019 525.999 769.997 523.969C774.11 522.707 786.833 520.134 788.749 516.852C787.222 515.229 785.328 514.34 783.376 513.219L783.217 512.232C785.291 511.059 786.21 510.791 787.457 508.867C785.198 503.638 777.964 506.055 778.423 497.841C776.05 493.106 766.881 493.663 762.86 491.179C754.399 485.951 748.594 482.268 739.204 478.873C747.506 469.534 757.158 461.492 767.841 455.014L767.365 458.138C763.733 463.446 759.489 469.347 756.354 474.861C780.258 477.961 803.406 483.106 827.535 484.282C823.667 490.676 817.85 499.167 814.55 505.32C836.48 508.64 858.146 513.248 880.419 514.942C880.438 514.92 885.511 505.686 886.447 504.257C904.699 498.296 932.193 489.368 949.354 481.516C955.374 466.541 961.261 451.513 967.014 436.434C968.802 431.612 975.421 411.523 977.973 409.479C982.523 408.829 986.797 407.958 991.293 407.06C999.224 405.689 1007.25 404.121 1015.17 402.646Z"/><path fill="#E94E24" transform="scale(2.60059 2.60059)" d="M1015.17 402.646C1016.66 391.689 1018.03 380.37 1019.63 369.411C1019.96 367.137 1020 367.03 1021.43 366.115C1026.43 368.256 1034.48 369.378 1039.99 370.535C1058.81 374.485 1077.06 375.78 1096.09 377.356C1103.77 377.992 1122.67 379.323 1129.73 381.091L1131.67 381.141C1141.45 381.467 1162.7 383.833 1170.96 381.876C1168.68 396.912 1164.98 413.012 1161.8 428C1157.49 429.496 1118.71 443.551 1116.92 446.153L1117.35 446.632C1116.12 450.52 1117.25 480.718 1118.09 485.517C1121.42 504.431 1128.34 523.123 1131.4 542.248C1127.22 552.355 1119.23 552.442 1111.62 557.433C1099.2 565.581 1064.28 577.638 1055.3 588.196C1041 605.029 1024.22 636.532 1010.68 655.303L1008.88 655.88C988.403 654.717 953.893 652.811 934.644 649.431C940.848 643.426 952.79 634.243 959.995 628.095C957.048 626.63 928.247 623.88 922.731 623.088C910.776 621.519 893.047 620.321 881.673 617.584C885.481 614.892 888.905 611.694 892.388 608.588C871.674 607.313 850.359 603.671 829.717 601.285C821.009 600.291 812.467 599.37 803.813 597.91C822.004 581.205 838.757 559.255 855.696 541.119C859.856 536.665 869.425 532.091 873.425 527.2C875.187 525.045 878.957 517.692 880.419 514.942C880.438 514.92 885.511 505.686 886.447 504.257C904.699 498.296 932.193 489.368 949.354 481.516C955.374 466.541 961.261 451.513 967.014 436.434C968.802 431.612 975.421 411.523 977.973 409.479C982.523 408.829 986.797 407.958 991.293 407.06C999.224 405.689 1007.25 404.121 1015.17 402.646Z"/><path fill="#D83F1B" transform="scale(2.60059 2.60059)" d="M1034.38 400.819C1047.13 394.617 1051.79 391.397 1062.35 381.983C1055.15 405.654 1050.44 435.341 1045.09 459.903C1030.48 476.045 1012.34 489.693 996.528 504.645C990.377 510.462 990.175 522.617 984.838 527.357C961.716 547.893 936.765 566.784 913.121 586.759C906.373 592.46 898.789 604.181 892.388 608.588C871.674 607.313 850.359 603.671 829.717 601.285C821.009 600.291 812.467 599.37 803.813 597.91C822.004 581.205 838.757 559.255 855.696 541.119C859.856 536.665 869.425 532.091 873.425 527.2C875.187 525.045 878.957 517.692 880.419 514.942C880.438 514.92 885.511 505.686 886.447 504.257C904.699 498.296 932.193 489.368 949.354 481.516C955.374 466.541 961.261 451.513 967.014 436.434C968.802 431.612 975.421 411.523 977.973 409.479C982.523 408.829 986.797 407.958 991.293 407.06C999.224 405.689 1007.25 404.121 1015.17 402.646C1020.02 402.041 1029.92 400.566 1034.38 400.819Z"/><path fill="#E94E24" transform="scale(2.60059 2.60059)" d="M949.354 481.516C955.374 466.541 961.261 451.513 967.014 436.434C968.802 431.612 975.421 411.523 977.973 409.479C985.322 412.574 993.062 415.464 1000.01 419.276C992.699 426.512 987.006 447.176 981.791 457C979.641 461.164 974.883 474.309 971.862 476.809C952.876 492.52 933.055 511.329 912.755 525.095C907.662 528.549 882.075 535.072 874.333 538.111C870.351 544.266 831.464 600.346 829.717 601.285C821.009 600.291 812.467 599.37 803.813 597.91C822.004 581.205 838.757 559.255 855.696 541.119C859.856 536.665 869.425 532.091 873.425 527.2C875.187 525.045 878.957 517.692 880.419 514.942C880.438 514.92 885.511 505.686 886.447 504.257C904.699 498.296 932.193 489.368 949.354 481.516Z"/><path fill="#F79A46" transform="scale(2.60059 2.60059)" d="M1015.17 402.646C1020.02 402.041 1029.92 400.566 1034.38 400.819C1024.52 406.055 1009.01 413.635 1000.01 419.276C993.062 415.464 985.322 412.574 977.973 409.479C982.523 408.829 986.797 407.958 991.293 407.06C999.224 405.689 1007.25 404.121 1015.17 402.646Z"/><path fill="#E94E24" transform="scale(2.60059 2.60059)" d="M1131.67 381.141C1141.45 381.467 1162.7 383.833 1170.96 381.876C1168.68 396.912 1164.98 413.012 1161.8 428C1157.49 429.496 1118.71 443.551 1116.92 446.153L1117.35 446.632C1116.12 450.52 1117.25 480.718 1118.09 485.517C1121.42 504.431 1128.34 523.123 1131.4 542.248C1127.22 552.355 1119.23 552.442 1111.62 557.433C1099.2 565.581 1064.28 577.638 1055.3 588.196C1041 605.029 1024.22 636.532 1010.68 655.303L1008.88 655.88C988.403 654.717 953.893 652.811 934.644 649.431C940.848 643.426 952.79 634.243 959.995 628.095C964.371 624.699 980.618 599.958 986.465 593.965C1003.56 576.439 1022.96 562.392 1040.44 545.237C1047.59 538.213 1053.81 519.948 1059.28 516.204C1068.2 510.098 1081.03 502.459 1090.54 496.274C1100.17 470.395 1109.02 444.064 1118.22 418.013C1120.38 411.9 1131.76 384.562 1131.67 381.141Z"/><path fill="#D83F1B" transform="scale(2.60059 2.60059)" d="M1129.73 381.091L1131.67 381.141C1131.76 384.562 1120.38 411.9 1118.22 418.013C1109.02 444.064 1100.17 470.395 1090.54 496.274C1081.03 502.459 1068.2 510.098 1059.28 516.204C1053.81 519.948 1047.59 538.213 1040.44 545.237C1022.96 562.392 1003.56 576.439 986.465 593.965C980.618 599.958 964.371 624.699 959.995 628.095C957.048 626.63 928.247 623.88 922.731 623.088C925.156 622.731 937.981 610.338 941.114 607.648C963.614 588.326 984.483 567.455 1008.84 550.379C1012.12 544.557 1020.63 518.679 1023.35 510.981C1037.82 501.379 1050.53 492.914 1064.59 482.676C1074.78 453.612 1083.49 420.521 1094.85 392.166C1100.59 388.534 1106.29 384.818 1111.92 381.02C1117.86 381.175 1123.8 381.199 1129.73 381.091Z"/><path fill="#D83F1B" transform="scale(2.60059 2.60059)" d="M423.289 750.148C487.195 745.721 559.801 736.317 623.402 728.4C636.256 726.753 649.13 725.267 662.021 723.942C668.459 723.259 682.501 722.086 687.943 720.448C690.146 763.638 697.377 808.704 699.939 852.465C702.415 855.611 704.963 858.688 707.565 861.73C723.411 880.254 737.655 900.071 753.329 918.736C757.946 924.909 761.886 929.12 767.176 934.786C764.704 936.001 749.58 943.226 748.326 944.191C731.978 951.174 716.239 960.304 700.348 968.128L588.897 1022.85C586.651 1018.66 577.747 991.381 575.75 985.472C566.322 956.763 556.602 928.151 546.593 899.64C534.834 891.254 505.614 867.496 494.879 857.126L489.29 795.298C488.685 788.568 487.281 769.541 485.842 763.704C478.147 758.712 434.657 753.789 423.289 750.148Z"/><path fill="#B83324" transform="scale(2.60059 2.60059)" d="M234.65 383.835C249.662 382.601 297.905 386.119 311.895 389.639C344.123 397.747 363.81 395.938 396.387 397.888C414.382 400.889 503.669 415.911 511.174 422.16C511.478 423.122 511.721 423.602 511.797 424.585C512.841 440.729 519.417 470.652 522.287 487.731C544.677 493.843 570.802 503.419 593.049 511.248C596.614 512.502 605.878 520.222 610.316 522.755C625.76 531.89 640.871 539.368 656.927 547.228C660.175 548.818 674.569 562.395 674.84 565.938C673.825 567.01 674.106 566.932 672.866 567.599L625.381 574.353C612.224 576.478 575.718 580.126 563.112 579.846C550.43 581.369 538.319 582.138 525.747 583.469C492.113 585.914 455.102 586.392 422.483 589.379C411.833 568.3 404.778 551.554 390.136 531.919C384.481 524.336 369.044 509.033 365.487 502.581C363.003 498.075 357.913 474.744 355.619 467.304C352.843 465.226 346.023 465.093 342.28 464.71C323.976 462.833 305.667 460.988 287.36 459.138C283.575 455.238 280.355 450.429 277.628 445.746L276.986 440.136C272.943 424.287 256.491 411.852 240.446 410.19C237.824 401.81 236.304 392.51 234.65 383.835Z"/><path fill="#D83F1B" transform="scale(2.60059 2.60059)" d="M511.797 424.585C512.841 440.729 519.417 470.652 522.287 487.731C544.677 493.843 570.802 503.419 593.049 511.248C596.614 512.502 605.878 520.222 610.316 522.755C625.76 531.89 640.871 539.368 656.927 547.228C660.175 548.818 674.569 562.395 674.84 565.938C673.825 567.01 674.106 566.932 672.866 567.599L625.381 574.353C612.224 576.478 575.718 580.126 563.112 579.846C552.908 567.373 542.551 555.026 532.042 542.808C526.394 536.199 517.246 524.746 510.714 519.723C506.641 516.59 497.08 511.548 491.779 508.077C486.533 481.789 483.011 456.458 479.34 430.005C477.394 428.455 475.709 428.964 472.718 428.851C473.791 428.58 481.04 428.247 482.49 428.154C493.217 427.467 501.303 427.624 511.797 424.585Z"/><path fill="#EF862B" transform="scale(2.60059 2.60059)" d="M522.287 487.731C544.677 493.843 570.802 503.419 593.049 511.248C596.614 512.502 605.878 520.222 610.316 522.755C625.76 531.89 640.871 539.368 656.927 547.228C660.175 548.818 674.569 562.395 674.84 565.938C673.825 567.01 674.106 566.932 672.866 567.599L625.381 574.353C623.173 571.582 616.094 566.2 612.969 563.591C607.998 559.462 603.335 554.977 599.017 550.171C588.688 538.743 582.796 526.575 573.464 515.018C558.191 508.92 540.614 503.994 524.69 498.203L522.287 487.731Z"/><path fill="#F79A46" transform="scale(2.60059 2.60059)" d="M234.65 383.835C249.662 382.601 297.905 386.119 311.895 389.639C344.123 397.747 363.81 395.938 396.387 397.888C414.382 400.889 503.669 415.911 511.174 422.16C511.478 423.122 511.721 423.602 511.797 424.585C501.303 427.624 493.217 427.467 482.49 428.154C481.04 428.247 473.791 428.58 472.718 428.851C443.182 430.013 413.627 430.599 384.068 430.61L361.312 430.424L365.185 439.675C338.85 440.772 303.081 441.481 276.986 440.136C272.943 424.287 256.491 411.852 240.446 410.19C237.824 401.81 236.304 392.51 234.65 383.835Z"/><path fill="#D83F1B" transform="scale(2.60059 2.60059)" d="M361.312 430.424L384.068 430.61C387.897 457.88 392.229 485.076 397.063 512.186C413.022 522.711 522.076 577.293 525.747 583.469C492.113 585.914 455.102 586.392 422.483 589.379C411.833 568.3 404.778 551.554 390.136 531.919C384.481 524.336 369.044 509.033 365.487 502.581C363.003 498.075 357.913 474.744 355.619 467.304C352.843 465.226 346.023 465.093 342.28 464.71C323.976 462.833 305.667 460.988 287.36 459.138C283.575 455.238 280.355 450.429 277.628 445.746L276.986 440.136C303.081 441.481 338.85 440.772 365.185 439.675L361.312 430.424Z"/><path fill="#B83324" transform="scale(2.60059 2.60059)" d="M733.649 682.918C735.161 686.881 737.636 707.108 738.432 712.557L748.503 781.381C752.907 785.915 763.26 792.423 768.853 796.358C780.73 804.711 792.875 812.802 805.06 820.669C816.431 828.012 832.335 836.358 842.609 844.345C852.643 852.146 864.737 868.149 873.951 877.791L802.884 902.058C788.564 907.064 767.672 915.076 753.329 918.736C737.655 900.071 723.411 880.254 707.565 861.73C704.963 858.688 702.415 855.611 699.939 852.465C697.377 808.704 690.146 763.638 687.943 720.448C684.229 715.061 648.647 706.837 639.598 703.652C659.862 699 680.179 694.577 700.543 690.384C710.684 688.234 724.023 685.847 733.649 682.918Z"/><path fill="#E94E24" transform="scale(2.60059 2.60059)" d="M716.505 667.901C724.36 661.764 734.128 654.64 741.393 648.093C744.813 672.924 749.973 697.657 753.78 722.439C755.658 734.664 760.906 739.401 767.648 749.34C772.746 756.963 777.64 764.72 782.327 772.603C784.627 776.407 797.273 798.322 799.88 799.708C838.549 820.273 880.414 845.257 920.761 861.753C905.214 867.647 889.511 872.061 873.951 877.791C864.737 868.149 852.643 852.146 842.609 844.345C832.335 836.358 816.431 828.012 805.06 820.669C792.875 812.802 780.73 804.711 768.853 796.358C763.26 792.423 752.907 785.915 748.503 781.381L738.432 712.557C737.636 707.108 735.161 686.881 733.649 682.918C733.053 680.019 719.51 670.23 716.505 667.901Z"/><path fill="#0F7576" transform="scale(2.60059 2.60059)" d="M625.381 574.353L672.866 567.599C667.101 571.945 653.856 574.917 646.441 576.988C633.524 580.597 618.85 584.812 605.98 588.035C591.576 591.643 531.873 599.146 523.899 608.418C513.134 608.515 499.711 607.237 488.773 606.461C470.942 605.168 453.102 604.011 435.254 602.991C424.824 602.39 426.226 598.764 422.483 589.379C455.102 586.392 492.113 585.914 525.747 583.469C538.319 582.138 550.43 581.369 563.112 579.846C575.718 580.126 612.224 576.478 625.381 574.353Z"/><path fill="#0F7576" transform="scale(2.60059 2.60059)" d="M588.897 1022.85L700.348 968.128C716.239 960.304 731.978 951.174 748.326 944.191C747.084 946.66 732.199 954.665 729.078 956.671C726.282 958.467 719.339 959.149 717.564 962.877C715.46 967.298 711.869 967.816 707.514 968.967C706.157 968.619 706.243 968.67 705.335 967.603C694.8 975.294 689.147 976.229 677.932 981.449C672.721 983.875 658.516 992.783 654.194 996.379C666.591 992.913 683.492 988.025 671.749 1008.51C667.626 1010.41 661.2 1014.3 660.934 1019.48C663.133 1022.25 669.85 1022.5 672.547 1021.27C672.135 1009.51 684.914 1004.07 676.175 993.682C678.327 990.57 681.904 989.898 684.837 986.992C687.941 987.771 688.02 987.231 689.71 989.402C690.616 1002.76 657.124 1027.12 706.087 1021.56C715.411 1020.5 759.442 992.897 764.504 993.709C752.263 1001.19 736.787 1007.93 723.876 1014.53C718.07 1017.5 710.653 1020.44 705.415 1024L588.754 1024L588.897 1022.85Z"/><path fill="#6B1818" transform="scale(2.60059 2.60059)" d="M1536 631.213L1536 1024L1069.92 1024C1071.79 1020.1 1074.06 1015.86 1076.22 1012.11C1089.27 989.537 1100.86 964.743 1114.66 942.694C1135.85 937.753 1170.25 929.641 1190.28 923.066C1195.68 908.958 1201.97 891.38 1208.12 877.909C1219.74 874.568 1233.99 871.454 1245.12 867.628C1258.83 854.985 1272.72 842.05 1285.27 828.228C1291.38 821.504 1296.2 811.345 1299.82 802.952C1302.57 801.07 1325.67 750.521 1329.51 743.095C1336.72 729.195 1345 707.618 1350.99 692.661C1361.34 695.85 1376.53 697.771 1387.55 699.269C1409.62 702.224 1431.71 705 1453.83 707.596C1464.01 708.805 1483.5 710.637 1492.89 712.823C1494.23 705.662 1498.76 691.639 1500.93 684.306C1505.93 667.911 1510.63 651.424 1515.02 634.854C1521.03 633.272 1529.65 632.184 1536 631.213Z"/><path fill="#E94E24" transform="scale(2.60059 2.60059)" d="M1350.99 692.661C1361.34 695.85 1376.53 697.771 1387.55 699.269C1409.62 702.224 1431.71 705 1453.83 707.596C1464.01 708.805 1483.5 710.637 1492.89 712.823C1491.66 716.693 1490.23 721.689 1488.74 725.367C1482.02 729.221 1473.94 732.853 1466.79 735.99C1438.34 748.469 1409.91 762.97 1380.89 774.019C1377.34 793.016 1374.18 814.776 1371.38 834.01C1341.68 839.982 1308.86 851.044 1279.21 858.291C1271.1 860.276 1252.04 866.627 1245.12 867.628C1258.83 854.985 1272.72 842.05 1285.27 828.228C1291.38 821.504 1296.2 811.345 1299.82 802.952C1302.57 801.07 1325.67 750.521 1329.51 743.095C1336.72 729.195 1345 707.618 1350.99 692.661Z"/></svg>